<?xml version="1.0" encoding="utf-8"?>
<!-- Generator: Adobe Illustrator 15.0.0, SVG Export Plug-In . SVG Version: 6.00 Build 0)  -->
<!DOCTYPE svg PUBLIC "-//W3C//DTD SVG 1.1//EN" "http://www.w3.org/Graphics/SVG/1.1/DTD/svg11.dtd">
<svg version="1.1" id="Layer_6" xmlns="http://www.w3.org/2000/svg" xmlns:xlink="http://www.w3.org/1999/xlink" x="0px" y="0px"
	 width="595.28px" height="841.89px" viewBox="0 0 595.28 841.89" enable-background="new 0 0 595.28 841.89" xml:space="preserve">
<g>
	<g>
		<polygon fill="#238BFF" points="243.942,378.397 200.101,380.283 168.988,404.325 211.651,416.346 		"/>
		<polygon fill="#238BFF" points="313.004,447.458 311.117,491.299 287.075,522.412 275.055,479.75 		"/>
	</g>
	<polygon fill="#282F37" points="261.62,472.914 240.171,451.466 239.936,451.23 218.487,429.781 210.001,429.309 193.266,451.701 
		216.365,474.8 216.601,475.035 239.699,498.134 262.091,481.398 	"/>
	<path fill="#FBFAFF" d="M365.215,326.267l0.037-0.037c-0.021-0.008-0.04-0.015-0.06-0.022c-0.008-0.02-0.015-0.04-0.022-0.06
		l-0.037,0.037c-51.886-20.069-73.681,4.041-82.513,12.872c-8.839,8.839-83.085,83.085-83.085,83.085l69.723,69.724
		c0,0,74.247-74.247,83.085-83.086C361.175,399.949,385.284,378.154,365.215,326.267z"/>
	<path fill="#282F37" d="M322.549,391.851c-6.144,0-11.92-2.392-16.264-6.736c-8.967-8.968-8.967-23.56,0-32.527
		c4.344-4.344,10.12-6.737,16.264-6.737s11.92,2.393,16.264,6.737c4.344,4.343,6.735,10.119,6.735,16.263
		c0,6.144-2.392,11.919-6.736,16.264C334.469,389.459,328.692,391.851,322.549,391.851z M322.549,353.852
		c-4.007,0-7.774,1.56-10.607,4.394c-5.848,5.848-5.848,15.364,0,21.213c2.833,2.833,6.601,4.393,10.607,4.393
		s7.773-1.56,10.606-4.393c2.833-2.833,4.393-6.6,4.393-10.607s-1.56-7.773-4.393-10.606
		C330.322,355.412,326.556,353.852,322.549,353.852z"/>
	<g>
		
			<rect x="257.55" y="398.193" transform="matrix(0.7071 0.7071 -0.7071 0.7071 369.4536 -85.8535)" fill="#238BFF" width="61.621" height="9.693"/>
		<polygon fill="#242A31" points="245.219,420.606 270.794,420.606 270.794,446.181 279.794,455.182 279.795,411.608 
			279.792,411.608 279.792,411.605 236.219,411.606 		"/>
	</g>
	<g>
		
			<rect x="177.203" y="463.231" transform="matrix(0.7071 0.7071 -0.7071 0.7071 391.2592 11.33)" fill="#FAF21C" width="9.499" height="29.5"/>
		
			<rect x="192.936" y="478.964" transform="matrix(0.7071 0.7071 -0.7071 0.7071 407.0096 4.8206)" fill="#FAF21C" width="9.5" height="29.5"/>
		
			<rect x="208.669" y="494.698" transform="matrix(0.7071 0.7071 -0.7071 0.7071 422.7614 -1.6884)" fill="#FAF21C" width="9.5" height="29.5"/>
	</g>
</g>
</svg>
